(English description follows)
Das waren Die Ärzte...aus Berlin
(als sie noch jung und knakig wahren).
Ich habe lange nach diesem video im internet gesucht,ohne erfolg natürlich,war ja klar,umso größer war mein erstaunen als ich beim durchstöbern einiger alten sachen eine VHS kassete mit der aufsrift
Richy Guitar fand.
Für die zwei drei leüte die den film vieleicht nicht kennen solten
hier ein link  	[url]http://www.die-beste-band-der-welt.de/discographie/video/richy_guitar.htm[/url]
Ich machte also sofort ein capture und hier ist es nun.
Daß es eine VHS ist sieht man leider an einigen stellen besonders deutlich,aber ich denk mir besser als garnichts,wie auch auf den thumbs zu sehen wurde die kassete zu einer zeit aufgenommen als man filme noch ohne werbung und nichteinmahl mit dem logo des senders ausstrahlte.(man bin ich alt geworden)
Der beste film der welt,gemacht mit der besten band der welt.

[img]http://img255.imageshack.us/img255/692/richyguitardieaerzte.jpg[/img]

Spielfilm, BRD, 1985
Darsteller:
Jan Vetter(Fahrin Urlaub) - Richard
Bela B. Felsenheimer - Igor
Kristina Raschen - Anja
Ingrid van Bergen - Richard's Mutterl
Horst Pinnow - Richard's Vater
Nena - als sie selbst
Hans Runge - Hans
Axel Knabben - Hippie
Regie: Michael Laux
Buch: Michael Laux

Länge: 90 Minuten
Genre: Musikfilm



Quote:
Format                           : AVI
Format/Info                      : Audio Video Interleave
File size                        : 781 MiB
Duration                         : 1h 21mn
Overall bit rate                 : 1 338 Kbps

Video
ID                               : 0
Format                           : MPEG-4 Visual
Format profile                   : Advanced Simple@L5
Format settings, BVOP            : 2
Format settings, QPel            : No
Format settings, GMC             : No warppoints
Format settings, Matrix          : Default (H.263)
Codec ID                         : XVID
Codec ID/Hint                    : XviD
Duration                         : 1h 21mn
Bit rate                         : 1 198 Kbps
Width                            : 640 pixels
Height                           : 480 pixels
Display aspect ratio             : 4:3
Frame rate                       : 24.000 fps
Color space                      : YUV
Chroma subsampling               : 4:2:0
Bit depth                        : 8 bits
Scan type                        : Progressive
Compression mode                 : Lossy
Bits/(Pixel*Frame)               : 0.162
Stream size                      : 700 MiB (90%)
Writing library                  : XviD 1.2.1 (UTC 2008-12-04)

Audio
ID                               : 1
Format                           : MPEG Audio
Format version                   : Version 1
Format profile                   : Layer 3
Codec ID                         : 55
Codec ID/Hint                    : MP3
Duration                         : 1h 21mn
Bit rate mode                    : Constant
Bit rate                         : 128 Kbps
Channel(s)                       : 2 channels
Sampling rate                    : 44.1 KHz
Compression mode                 : Lossy
Stream size                      : 74.7 MiB (10%)
Alignment                        : Split accross interleaves
Interleave, duration             : 26 ms (0.63 video frame)
Writing library                  : LAME3.98.4

English
This is a german '80 cult movie staring a german cult pank/rock band
Die Ärzte,I thought of sharing because I was looking for it a long time,on-line, without success,so I stumbeled upon a vhs tape and imediatly captured it,so here is the result.